<svg id="Layer_1" xmlns="http://www.w3.org/2000/svg" viewBox="0 0 1247.4 666.7"><style>.st0{fill:#ffc629}.st1{fill:#fff}.st2{fill:#e8ebed}.st3{fill:#005cb9}.st4{fill:#f5a02e}.st5{fill:#0875e1}.st6{fill:#40b4e5}.st7{fill:#12a67c}.st8{fill:#cb7445}.st9{fill:#0c7a5b}.st10{fill:#edb4b5}.st11{fill:#1894c9}</style><path class="st0" d="M.8 634.7C.8 290.3 280 11 624.5 11s623.7 279.2 623.7 623.7H.8z"/><path d="M1036 520.5H200.4c-4.1 0-7.5-3.3-7.5-7.5v-52.4h850.5V513c0 4.2-3.3 7.5-7.4 7.5z"/><path d="M972.4-1H263.9c-7.5 0-13.5 6.1-13.5 13.5v476.7H986V12.5C986 5 979.9-1 972.4-1z"/><path class="st1" d="M276.1 30.3h682.2v430.4H276.1z"/><circle class="st2" cx="617.3" cy="15.4" r="8"/><path class="st2" d="M277.3 96.8h680.8v363H277.3z"/><path class="st3" d="M278 90.6h680.1V92H278z"/><path class="st4" d="M296.9 45.3c-1-2.6-3.3-4.2-6-4.2s-5 1.6-6 4.2c-.1.2 0 .4 0 .6.1.2.4.3.6.3.3 0 .6-.2.7-.5.7-1.9 2.5-3.1 4.5-3.1s3.8 1.2 4.5 3.1c.1.3.4.5.7.5.2 0 .5-.1.6-.3.5-.1.5-.4.4-.6z"/><path class="st3" d="M295 56.4c0 .2-.2.3-.4.3h-1.4c-.2 0-.3 0-.4-.3l-1.4-5.2c-.1-.5-.2-1.1-.3-1.7 0 .6-.1 1.2-.3 1.7l-1.4 5.2c0 .2-.2.3-.4.3h-1.5c-.2 0-.3 0-.4-.3l-2-7.4c0-.2.1-.4.3-.4h.9c.2 0 .4.1.4.3l1.3 5.3c.1.6.2 1.2.2 1.8.1-.5.2-1.2.3-1.8l1.4-5.3c0-.2.2-.3.5-.3h1.1c.2 0 .4.1.5.3l1.4 5.3.3 1.8c.1-.5.1-1.2.3-1.8l1.2-5.3c0-.2.2-.3.5-.3h.9c.2 0 .4.1.3.4l-1.9 7.4z"/><path class="st5" d="M276.1 62.6h682v39.2h-682z"/><circle class="st2" cx="942.1" cy="47.8" r="7.7"/><path class="st2" d="M492.1 157.1c-2.8 0-5.1-2.3-5.1-5.1s2.3-5.1 5.1-5.1 5.1 2.3 5.1 5.1-2.3 5.1-5.1 5.1zm0-9c-2.2 0-3.9 1.8-3.9 3.9s1.8 3.9 3.9 3.9 3.9-1.8 3.9-3.9-1.7-3.9-3.9-3.9zM710.7 256.3c-2.8 0-5.1-2.3-5.1-5.1s2.3-5.1 5.1-5.1 5.1 2.3 5.1 5.1-2.3 5.1-5.1 5.1zm0-9c-2.2 0-3.9 1.8-3.9 3.9s1.8 3.9 3.9 3.9 3.9-1.8 3.9-3.9-1.7-3.9-3.9-3.9zM929.3 156.5c-2.8 0-5.1-2.3-5.1-5.1s2.3-5.1 5.1-5.1 5.1 2.3 5.1 5.1-2.3 5.1-5.1 5.1zm0-9c-2.2 0-3.9 1.8-3.9 3.9s1.8 3.9 3.9 3.9 3.9-1.8 3.9-3.9-1.7-3.9-3.9-3.9z"/><path class="st1" d="M940.3 130.3H295.2c-.7 0-1.2-.6-1.2-1.2v-22.5c0-.7.6-1.2 1.2-1.2h645.1c.7 0 1.2.6 1.2 1.2v22.5c0 .7-.6 1.2-1.2 1.2zM502.4 404.2H294.6c-.7 0-1.2-.6-1.2-1.2V140.5c0-.7.6-1.2 1.2-1.2h207.8c.7 0 1.2.6 1.2 1.2V403c.1.6-.5 1.2-1.2 1.2zM293.4 459.7V416c0-1.3 1.1-2.4 2.4-2.4h205.5c1.3 0 2.4 1.1 2.4 2.4v43.7H293.4zM940.9 342.4H733c-.7 0-1.2-.6-1.2-1.2V140.5c0-.7.6-1.2 1.2-1.2h207.8c.7 0 1.2.6 1.2 1.2v200.7c.1.7-.5 1.2-1.1 1.2zM731.8 459.7V354.3c0-1.3 1.1-2.4 2.4-2.4h205.5c1.3 0 2.4 1.1 2.4 2.4v105.4H731.8z"/><path class="st4" d="M399.1 317.8c-32.3 0-58.5-26.3-58.5-58.5s26.3-58.5 58.5-58.5v12.5c-25.4 0-46.1 20.7-46.1 46.1s20.7 46.1 46.1 46.1 46.1-20.7 46.1-46.1c0-7-1.5-13.8-4.5-19.9l11.2-5.4c3.7 7.7 5.7 16.5 5.7 25.3 0 32.2-26.2 58.4-58.5 58.4z"/><path class="st6" d="M440.7 239.3c-6.9-14.4-21-24.3-36.8-25.9l1.3-12.4c20.1 2.1 38 14.7 46.8 32.9l-11.3 5.4z"/><path class="st5" d="M403.7 213.5c-1.5-.2-3-.3-4.6-.3v-12.5c2.1 0 4.1.1 6 .3l-1.4 12.5z"/><circle class="st6" cx="309.4" cy="360.8" r="3"/><circle class="st4" cx="309.4" cy="373.3" r="3"/><circle class="st3" cx="405.6" cy="360.8" r="3"/><circle class="st3" cx="405.6" cy="373.3" r="3"/><path class="st2" d="M316.5 357.3h49.9v5.9h-49.9zM819.1 331.1h28.5v5.9h-28.5zM374.8 246.8h47.5v13.1h-47.5zM387.8 265.8h23.8v5.9h-23.8zM303.5 148.2h33.3v5.9h-33.3zM303.5 423.8h33.3v5.9h-33.3zM739.5 360.8H812v5.9h-72.5zM739.5 148.2h45.1v5.9h-45.1zM810.8 162.4h57v5.9h-57zM823.9 205.2h44v5.9h-44zM814.4 248h53.5v5.9h-53.5zM840.5 289.5h27.3v5.9h-27.3zM840.5 377.5h27.3v5.9h-27.3zM816.7 417.9h51.1v5.9h-51.1zM303.5 116.1h52.3v5.9h-52.3zM475.7 148.2h8.3v5.9h-8.3zM411.6 357.3h49.9v5.9h-49.9zM411.6 369.1h55.8v5.9h-55.8zM316.5 369.1h20.2v5.9h-20.2zM384.3 438.1h47.5v13.1h-47.5z"/><circle class="st7" cx="353.4" cy="446.4" r="9.5"/><path class="st2" d="M820.3 171.9h47.5V185h-47.5zM820.3 214.7h47.5v13.1h-47.5zM833.4 257.5h32.1v13.1h-32.1zM820.3 385.8h45.1v13.1h-45.1zM848.8 299h16.6v13.1h-16.6z"/><circle class="st7" cx="802.5" cy="180.2" r="9.5"/><path class="st4" d="M812 312.1h-15.5l7.8-13.1zM812 400h-15.5l7.8-13z"/><path class="st2" d="M820.3 428.5h45.1v13.1h-45.1z"/><path class="st4" d="M812 442.8h-15.5l7.8-13.1z"/><path transform="rotate(-45.001 803.67 221.781)" class="st0" d="M796.5 214.6h14.3v14.3h-14.3z"/><path class="st2" d="M793 241.1h78.4v.6H793zM793 285.1h78.4v.6H793zM793 413.4h78.4v.6H793zM920.1 108.9h15.4v15.4h-15.4zM929.3 369.2c-2.8 0-5.1-2.3-5.1-5.1s2.3-5.1 5.1-5.1 5.1 2.3 5.1 5.1-2.3 5.1-5.1 5.1zm0-9c-2.2 0-3.9 1.8-3.9 3.9s1.8 3.9 3.9 3.9 3.9-1.8 3.9-3.9-1.7-3.9-3.9-3.9z"/><path class="st1" d="M292.8 78.1h123.6v8.3H292.8z"/><g><path class="st2" d="M710.7 157.1c-2.8 0-5.1-2.3-5.1-5.1s2.3-5.1 5.1-5.1 5.1 2.3 5.1 5.1-2.3 5.1-5.1 5.1zm0-9c-2.2 0-3.9 1.8-3.9 3.9s1.8 3.9 3.9 3.9 3.9-1.8 3.9-3.9-1.7-3.9-3.9-3.9z"/><path class="st1" d="M721 404.2H513.2c-.7 0-1.2-.6-1.2-1.2V140.5c0-.7.6-1.2 1.2-1.2H721c.7 0 1.2.6 1.2 1.2V403c.1.6-.5 1.2-1.2 1.2zM512 459.7V416c0-1.3 1.1-2.4 2.4-2.4h205.5c1.3 0 2.4 1.1 2.4 2.4v43.7H512z"/><circle class="st6" cx="528" cy="360.8" r="3"/><circle class="st4" cx="528" cy="373.3" r="3"/><circle class="st3" cx="624.3" cy="360.8" r="3"/><circle class="st3" cx="624.3" cy="373.3" r="3"/><path class="st2" d="M535.2 357.3h49.9v5.9h-49.9zM522.1 148.2h33.3v5.9h-33.3zM522.1 423.8h33.3v5.9h-33.3zM694.4 148.2h8.3v5.9h-8.3zM630.2 357.3h49.9v5.9h-49.9zM630.2 369.1H686v5.9h-55.8zM535.2 369.1h20.2v5.9h-20.2zM602.9 438.1h47.5v13.1h-47.5z"/><circle class="st7" cx="572" cy="446.4" r="9.5"/><path class="st6" d="M540.1 184.5h13.2v128.4h-13.2z"/><path class="st5" d="M558 259h11.2v53.9H558z"/><path class="st6" d="M587.6 313v-99.7h-13.2V313s6.4.2 9.7 0c1.2-.1 3.5 0 3.5 0z"/><path class="st5" d="M592.4 200.1h11.2V313h-11.2z"/><path class="st6" d="M609.3 177.7h13.2V313h-13.2z"/><path class="st5" d="M627.2 204.4h11.2v108.5h-11.2z"/><path class="st6" d="M642.5 208.2h13.2v104.7h-13.2z"/><path class="st5" d="M660.4 193.3h11.2V313h-11.2z"/><path class="st6" d="M676.2 204.7h13.2V313h-13.2z"/></g><g><path d="M273.1 635.6s-4.2 8.2-3.6 27l73.4-1.2s3.9-12.8-13-15.5c-17-2.8-24.8-7-26.4-10.3h-30.4z"/><path class="st5" d="M269.5 656.8s-.6 2.3-.9 4.9c-.2 1.6 1.1 3 2.7 3h69.2c1.6 0 2.5-1.4 2.7-3 .2-1.5 0-2.7 0-2.7h-65.1c-7.7-.1-8.6-2.2-8.6-2.2z"/><path class="st8" d="M273 627.1s-.1 3.1.1 8.4c.2 5.3 11.5 10.5 20.5 7.5 5.6-1.8 2.9-7.7 9.9-7.5l-2.4-8.1-28.1-.3z"/><path class="st5" d="M177.4 636.4c14.1-53.4 20.9-114.2 20.9-114.2 16.6-78.6 18.3-111.5 18.3-111.5.5-2.8 4.4-2.9 5-.1 0 0-.3 21.9 28.8 111.1 0 0-4.3 35.9 22.7 113.9l30.4.9s-30.7-264.4-32.4-280.1c-1.7-15.7-11.2-19.6-11.2-19.6l-40.3-.2h-1.8l-40.3.2s-9.5 4-11.2 19.6c-1.7 15.7-17.9 280.1-17.9 280.1l29-.1"/><path class="st8" d="M200.6 178c0-.6.6-23.7.6-23.7l36.4-1.6 1 26.5-38-1.2z"/><path class="st5" d="M143 662.1c.2 1.9 1.5 3.5 3.4 3.5h31.5c2 0 3.5-1.6 3.4-3.6 0 0 .2-.7 0-3.6-5.2 0-38.2.1-38.2.1s-.3 2.5-.1 3.6z"/><path class="st8" d="M323.8 208.4s1.2-17.2 7.8-29.7 9-12.8 9-12.8 1.8 1.2 2.2 4.3c.3 3.2-1 3.5-.5 7.3s5.3 5.5 7.3 12.3.3 19.9-6.5 27.3l-19.3-8.7z"/><path d="M148.3 636.4s-4.7 7.2-5.4 22.1c-.1 1.9 1.5 3.5 3.4 3.5h31.5c2 0 3.5-1.6 3.4-3.6-.2-3.9-1.1-11.1-3.8-22h-29.1z"/><path class="st7" d="M322.3 207.7l-7.2 34c-8.5-11.9-23.2-30.5-31.5-37-10-7.9-39.3-16.4-39.3-16.4s-.4-2.7-2.3-7.7-7.3-5.4-7.3-5.4h-31.1s-5.4.4-7.3 5.4c-1.9 5-2.3 7.7-2.3 7.7s-29.3 8.5-39.3 16.4-29.3 33.3-35.8 43.3-18.1 22.3-19.6 30.4 9.2 23.1 20.4 40.8c11.2 17.7 24.2 33.1 24.2 33.1s10.8-7.3 19.6-15.4l-25.4-47.3 26.9-33.9s0 29.6.4 42c.4 12.3 1.5 31.6 1.5 31.6s-.4 7.7 6.2 7.7c7.7.8 45 0 45 0H265c6.2 0 6.2-7.7 6.2-7.7s1.2-19.2 1.5-31.6c.4-12.3.4-42 .4-42l33.1 38.1s14.1 15.2 21 9.4c6.9-5.9 9.6-16.8 9.6-16.8l11.5-77-26-1.7z"/><path class="st3" d="M185.3 400.9s13.8 9 32.2 9c16.7 0 32.9-8.2 32.9-8.2s-35.9 4.8-65.1-.8z"/><path class="st9" d="M273.2 255.7v-24.4l12.7 38.9zM165.1 255.7v-23l-11.6 37.5z"/><path class="st8" d="M147.4 349.8s3.4 9.9 11.3 8.4 6.8-5.2 6.8-5.2 11.5-1.9 14.6-6.2c0 0 15.2-1.5 16-10h-32.5l-16.2 13zM192.9 143.9s-4.1-.1-2.1 5.2 4.9 11.3 8.4 10.5l-6.3-15.7zM237.4 139.7s3.8-1.2 4.5 1.7-1.8 14.6-6.3 15.4l1.8-17.1z"/><path d="M207.7 98.9c-25.4 3.6-19 32.4-17.4 37.8s5.6 19.3 9 25.4c2.9 5.1 8 4.4 8 4.4l22.3-2.6s6.1-.5 7.4-7.1c1.6-8.1 2.9-16.3 2.9-21.2 0-22.9-6.8-40.3-32.2-36.7z"/></g><g><path d="M1134.7 607.4s-.5 32.1-.6 52.6c0 1.3-1.1 2.4-2.4 2.4h-2.7c-1.1 0-2.1-.8-2.4-1.9-.7-3.2-2.6-9.3-6.9-10.4-5.9-1.6-4.2 7-10.7 10.1s-33.7 7.9-42.9 3.9 31-20.5 35.4-36.3c3-10.8 3.3-20.4 3.3-20.4h29.9z"/><path class="st10" d="M1134.7 607.4s1 10.3-16.1 21.9c-15.2 10.4-30.2 13.9-30.2 13.9s8.2-7.1 11.2-14.4c3.2-7.6 4.9-21.4 4.9-21.4h30.2z"/><path d="M1035 600.3s-.5 32.1-.6 52.6c0 1.3-1.1 2.4-2.4 2.4h-2.7c-1.1 0-2.1-.8-2.4-1.9-.7-3.2-2.6-9.3-6.9-10.4-5.9-1.6-4.2 7-10.7 10.1s-33.7 7.9-42.9 3.9 31-20.5 35.4-36.3c3-10.8 3.3-20.4 3.3-20.4h29.9z"/><path class="st10" d="M1035 600.3s1 10.3-16.1 21.9c-15.2 10.4-30.2 13.9-30.2 13.9s8.2-7.1 11.2-14.4c3.2-7.6 4.9-21.4 4.9-21.4h30.2z"/><path d="M1023.1 333.9s-17.5 59.9-23.2 149.1c-2.4 37 3 80.2 3.4 124.3h32.6s9-95 8-139c0 0 47.3-84.6 52.1-131.2l-72.9-3.2z"/><path d="M1100.3 338s11.5 59.3 5.5 126.3c0 0 34.9 66.2 29.5 144h-31.4s-66.6-176.1-66.1-273.7l62.5 3.4z"/><path class="st6" d="M899.5 254.3s27.3-.7 72.7.2c0 0 67.7-69.5 84.6-52.7 29.1 28.9-42.6 94.2-89.6 88.7-27.8-3.3-71.5-12.7-71.5-12.7l3.8-23.5z"/><path class="st11" d="M1004.3 282l11.9-4.8 5.3-56.8s-13.8 22.5-17.2 61.6z"/><path class="st6" d="M1100.1 338.9c0-20.1 6.8-66.2 8.5-79.1 6.3-46.3-2-56.7-17.5-59.8-52.6-10.5-71.2 5.4-74.2 41.4s3.6 97.4 3.6 97.4h79.6v.1z"/><path class="st10" d="M1084.1 183.4c.9-6.3 19.4-15.8 16.5-37.5-1.7-12.8-14.9-25.6-33.3-18.3-13.9 5.6-18.3 17.8-21.2 23.1-3.9 7.2-7.4 6.8-7.7 9.4-.2 1.8 3.1 3.8 3.1 3.8s-2.4 6.6-1.3 12.3 10.2 6.4 12.3 8c4.4 3.2-3.7 13.4-3.7 13.4s2 8.6 15.6 9.2c13.7.7 17-8.3 17-8.3l2.7-15.1z"/><path d="M1058.4 133c2.4-2.1 5.3-4.1 8.9-5.5 18.4-7.3 31.6 5.5 33.3 18.3 2.9 21.7-15.6 31.2-16.5 37.5 0 0-16.4-11.1-9.9-27.7 6.5-16.6-15.8-22.6-15.8-22.6z"/><path class="st11" d="M1079.5 193.2l-25.9 10.4 2.5 18.3 26.3-18.9z"/><path class="st6" d="M1082.5 192l-28.9 11.6 3.6 15.1 27.4-19.8z"/><path class="st11" d="M1042 215.3l5.2-17 4.7-5.7 1.3 10.6s-1.2 3.8-11.2 12.1z"/><path class="st6" d="M1051.9 192.6l1.7 11-12.1 9.3 5.5-14.6z"/><path class="st11" d="M1109.1 252.4l1.3-19.7-92.8 65.2s25.8 3.6 52.1-8.5c14.8-6.8 32.2-22.5 39.4-37z"/><g id="magnifying_glass_2_"><path d="M975.6 269.5l-230.8-59.4c3.2-36.5-6.7-74.3-30.9-105.6-51-65.9-146-78.2-211.9-27.2s-78.2 145.9-27.2 211.9c51 65.9 145.9 78.2 211.9 27.2 20.2-15.5 35.4-35.2 45.2-56.9l230.7 56.6c12.7 3.2 25.8-4.2 29.4-16.8 3.7-12.7-3.7-26.1-16.4-29.8zm-476.5 1.1c-40.6-52.7-31-128.3 21.7-168.9s128.3-31 168.9 21.7 30.8 128.2-21.7 168.9c-52.6 40.7-128.2 30.9-168.9-21.7z"/><path d="M826.5 283.8L963 316.7c12.7 3.2 25.8-4.2 29.4-16.8 3.7-12.8-3.7-27.6-16.5-31.4l-135.8-34-13.6 49.3z" fill="#bdbdbd"/></g><path class="st10" d="M939.8 263.6s-22.7 2.7-23 18.4c-.1 5.9 11.8 7.1 20.5 4.9 6.7-1.6 11.6-6.4 11.6-6.4l1.9-16.8c-1.4-2.6-9.6-5.9-9.6-5.9s-6.6-3.7-1.4 5.8z"/><g><path class="st6" d="M949.9 261.7s27.3-.7 72.7.2c0 0 67.7-69.5 84.6-52.7 29.1 28.9-42.6 94.2-89.6 88.7-27.8-3.3-71.5-12.7-71.5-12.7l3.8-23.5z"/></g><path d="M1084 126.2s28.5 3.7 41.7 40.5c4.2 11.8 8.9 33.7 8.9 33.7s30.9 27.7 4.8 46.6c-9.9 7.2-53.8 8.9-63.8-25.7-4.6-15.9-6.5-38.4-2.8-59.8 2.4-14.2 11.2-35.3 11.2-35.3z"/></g></svg>